Gallery: 
 
http://imagedomino.com/?g=875009

Studio
New Sensations
Starring
Allyssa Hall, Chastity Lynn, Brooke Adams, Cassie Rose
Genre
Gonzo, All Sex
Description
Chastity Lynn, Cassie Rose, Allyssa Hall, Brooke Adams, and Amber Sun love to get their pussies ripped and ravaged while being watched. So sit back and enjoy the show, because these girlfriends are about to get pounded by someone else's dick! Oh, did we mention it's the boyfriends doing the watching? Because that's exactly what turns these bitches on!

Duration                         : 1h 32mn
Bit rate                         : 915 Kbps
Width                            : 624 pixels
Height                           : 352 pixels
Display aspect ratio             : 16:9
Frame rate                       : 29.970 fps
Color space                      : YUV
Chroma subsampling               : 4:2:0
Bit depth                        : 8 bits
Scan type                        : Progressive
Compression mode                 : Lossy
Bits/(Pixel*Frame)               : 0.139
Stream size                      : 607 MiB (87%)

Duration                         : 1h 31mn
Bit rate                         : 913 Kbps
Width                            : 624 pixels
Height                           : 352 pixels
Display aspect ratio             : 16:9
Frame rate                       : 29.970 fps
Color space                      : YUV
Chroma subsampling               : 4:2:0
Bit depth                        : 8 bits
Scan type                        : Progressive
Compression mode                 : Lossy
Bits/(Pixel*Frame)               : 0.139
Stream size                      : 597 MiB (87%)